<svg 
 xmlns="http://www.w3.org/2000/svg"
 xmlns:xlink="http://www.w3.org/1999/xlink"
 width="0.236in" height="0.222in">
<path fill-rule="evenodd"  fill="rgb(255, 255, 255)"
 d="M13.291,15.462 L13.291,10.027 C13.291,8.662 12.795,7.730 11.554,7.730 C10.609,7.730 10.044,8.358 9.798,8.966 C9.706,9.182 9.685,9.486 9.685,9.789 L9.685,15.462 L6.258,15.462 C6.258,15.462 6.303,6.257 6.258,5.304 L9.685,5.304 L9.685,6.743 C9.678,6.754 9.669,6.766 9.662,6.776 L9.685,6.776 L9.685,6.743 C10.139,6.052 10.952,5.066 12.772,5.066 C15.027,5.066 16.719,6.517 16.719,9.637 L16.719,15.462 L13.291,15.462 ZM2.647,3.917 L2.625,3.917 C1.475,3.917 0.732,3.137 0.732,2.161 C0.732,1.165 1.497,0.406 2.670,0.406 C3.843,0.406 4.564,1.165 4.585,2.161 C4.585,3.137 3.843,3.917 2.647,3.917 ZM4.360,15.462 L0.935,15.462 L0.935,5.304 L4.360,5.304 L4.360,15.462 Z"/>
</svg>