<svg 
 xmlns="http://www.w3.org/2000/svg"
 xmlns:xlink="http://www.w3.org/1999/xlink"
 width="0.472in" height="0.306in">
<path fill-rule="evenodd"  fill="rgb(67, 203, 131)"
 d="M30.205,12.219 L30.205,15.860 L27.557,15.860 L27.557,12.219 L23.915,12.219 L23.915,9.571 L27.557,9.571 L27.557,5.930 L30.205,5.930 L30.205,9.571 L33.847,9.571 L33.847,12.219 L30.205,12.219 ZM11.334,21.885 C5.556,21.885 0.871,17.201 0.871,11.424 C0.871,5.648 5.556,0.965 11.334,0.965 C14.054,0.965 16.531,2.004 18.391,3.706 L15.308,6.724 C14.235,5.817 12.849,5.268 11.334,5.268 C7.933,5.268 5.176,8.024 5.176,11.424 C5.176,14.825 7.933,17.581 11.334,17.581 C13.965,17.581 16.210,15.931 17.091,13.609 L11.201,13.609 L11.201,9.240 L17.091,9.240 L21.531,9.240 L21.567,9.240 C21.717,9.945 21.796,10.675 21.796,11.424 C21.796,17.201 17.112,21.885 11.334,21.885 Z"/>
</svg>